# AST/ASF file generated using VICON BodyLanguage
# -----------------------------------------------
:version 1.10
:name VICON
:units
  mass 1.0
  length 0.45
  angle deg
:documentation
   .ast/.asf automatically generated from VICON data using
   VICON BodyBuilder and BodyLanguage model FoxedUp or BRILLIANT.MOD
:root
   order TX TY TZ RX RY RZ
   axis XYZ
   position 0 0 0  
   orientation 0 0 0 
:bonedata
  begin
     id 1 
     name lhipjoint
     direction 0.612567 -0.751349 0.245431 
     length 2.42285 
     axis 0 0 0  XYZ
  end
  begin
     id 2 
     name lfemur
     direction 0.34202 -0.939693 0  
     length 7.11304  
     axis 0 0 20  XYZ
    dof rx ry rz
    limits (-160.0 20.0)
           (-70.0 70.0)
           (-60.0 70.0)
  end
  begin
     id 3 
     name ltibia
     direction 0.34202 -0.939693 0   
     length 7.84529   
     axis 0 0 20   XYZ
    dof rx
    limits (-10.0 170.0)
  end
  begin
     id 4 
     name lfoot
     direction 0.0779239 -0.214094 0.9737   
     length 1.97176   
     axis -90 7.62852e-016 20   XYZ
    dof rx rz
    limits (-45.0 90.0)
           (-70.0 20.0)
  end
  begin
     id 5 
     name ltoes
     direction 1.53565e-011 -4.21709e-011 1   
     length 0.993197   
     axis -90 7.62852e-016 20   XYZ
    dof rx
    limits (-90.0 20.0)
  end
  begin
     id 6 
     name rhipjoint
     direction -0.665722 -0.709315 0.231701   
     length 2.56642  
     axis 0 0 0  XYZ 
  end
  begin
     id 7 
     name rfemur
     direction -0.34202 -0.939693 0   
     length 7.32108   
     axis 0 0 -20   XYZ
    dof rx ry rz
    limits (-160.0 20.0)
           (-70.0 70.0)
           (-70.0 60.0)
  end
  begin
     id 8 
     name rtibia
     direction -0.34202 -0.939693 0   
     length 7.81254   
     axis 0 0 -20   XYZ
    dof rx
    limits (-10.0 170.0)
 end
 begin
     id 9 
     name rfoot
     direction -0.0832806 -0.228812 0.969902   
     length 2.08278  
     axis -90 -7.62852e-016 -20   XYZ
    dof rx rz
    limits (-45.0 90.0)
           (-20.0 70.0)
  end
  begin
     id 10 
     name rtoes
     direction -1.53589e-011 -4.22086e-011 1   
     length 1.04609   
     axis -90 -7.62852e-016 -20   XYZ
    dof rx
    limits (-90.0 20.0)
  end
  begin
     id 11 
     name lowerback
     direction -0.00506013 0.988403 -0.151766   
     length 2.01978   
     axis 0 0 0   XYZ
    dof rx ry rz
    limits (-20.0 45.0)
           (-30.0 30.0)
           (-30.0 30.0)
  end
  begin
     id 12 
     name upperback
     direction -0.00836389 0.99968 0.0238859   
     length 2.01276   
     axis 0 0 0   XYZ
    dof rx ry rz
    limits (-20.0 45.0)
           (-30.0 30.0)
           (-30.0 30.0)
  end
  begin
     id 13 
     name thorax
     direction -0.00684136 0.995386 0.0957043   
     length 2.07303   
     axis 0 0 0   XYZ
    dof rx ry rz
    limits (-20.0 45.0)
           (-30.0 30.0)
           (-30.0 30.0)
  end
  begin
     id 14 
     name lowerneck
     direction -0.0161045 0.999661 0.0204485   
     length 1.91243   
     axis 0 0 0   XYZ
    dof rx ry rz
    limits (-20.0 45.0)
           (-30.0 30.0)
           (-30.0 30.0)
  end
  begin
     id 15 
     name upperneck
     direction 0.0553583 0.990946 -0.122319   
     length 1.91574   
     axis 0 0 0   XYZ
    dof rx ry rz
    limits (-20.0 45.0)
           (-30.0 30.0)
           (-30.0 30.0)
  end
  begin
     id 16
     name head
     direction 0.0180273 0.998839 -0.0446756  
     length 1.92693  
     axis 0 0 0   XYZ
    dof rx ry rz
    limits (-20.0 45.0)
           (-30.0 30.0)
           (-30.0 30.0)
  end
  begin
     id 17 
     name lclavicle
     direction 0.945646 0.319323 -0.0615358  
     length 4.0076  
     axis 0 0 0   XYZ
    dof ry rz
    limits (-20.0 10.0)
           (0.0 20.0)
  end
  begin
     id 18 
     name lhumerus
     direction 1 -4.48967e-011 -2.79996e-027   
     length 5.64147   
     axis 180 -30 -90   XYZ
    dof rx ry rz
    limits (-60.0 90.0)
           (-90.0 90.0)
           (-90.0 90.0)
  end
  begin
     id 19
     name lradius
     direction 1 -4.48976e-011 -9.5122e-027   
     length 2.86444   
     axis 180 -30 -90   XYZ
    dof rx
    limits (-10.0 170.0)
  end
  begin
     id 20
     name lwrist
     direction 1 -4.48983e-011 -1.24047e-026   
     length 1.43222   
     axis 9.05591e-015 90 90   XYZ
    dof ry
    limits (-180.0 0.0)
 end
  begin
     id 21 
     name lhand
     direction 1 -4.4892e-011 -2.48094e-026   
     length 0.722123   
     axis 1.58305e-014 90 90   XYZ
    dof rx rz
    limits (-90.0 90.0)
           (-45.0 45.0)
  end
  begin
     id 22 
     name lfingers
     direction 1 -4.48895e-011 -4.96187e-026   
     length 0.582194   
     axis 3.1661e-014 90 90   XYZ
    dof rx
    limits (0.0 90.0)
  end
  begin
     id 23
     name lthumb
     direction 0.707107 -6.34961e-011 0.707107   
     length 0.835918   
     axis -90 45 2.85299e-015   XYZ
    dof rx rz
    limits (-45.0 45.0)
           (-45.0 45.0)
  end
  begin
     id 24 
     name rclavicle
     direction -0.932635 0.324218 -0.15835   
     length 3.65819  
     axis 0 0 0   XYZ 
    dof ry rz
    limits (-10.0 20.0)
           (-20.0 0.0)
  end
  begin
     id 25 
     name rhumerus
     direction -1 -4.48965e-011 -4.02296e-027  
     length 5.44729   
     axis 180 30 90   XYZ
    dof rx ry rz
    limits (-90.0 60.0)
           (-90.0 90.0)
           (-90.0 90.0)
  end
  begin
     id 26 
     name rradius
     direction -1 -4.48957e-011 -8.81087e-027   
     length 3.08821   
     axis 180 30 90   XYZ
    dof rx
    limits (-10.0 170.0)
  end
  begin
     id 27 
     name rwrist
     direction -1 -4.49015e-011 -1.24047e-026   
     length 1.5441   
     axis 9.05591e-015 -90 -90   XYZ
    dof ry
    limits (-180.0 0.0)
  end
  begin
     id 28
     name rhand
     direction -1 -4.4891e-011 -2.48094e-026   
     length 0.821049   
     axis 1.58305e-014 -90 -90   XYZ
    dof rx rz
    limits (-90.0 90.0)
           (-45.0 45.0)
  end
  begin
     id 29
     name rfingers
     direction -1 -4.48985e-011 -4.96187e-026   
     length 0.661951   
     axis 3.1661e-014 -90 -90   XYZ
    dof rx
    limits (0.0 90.0)
  end
  begin
     id 30
     name rthumb
     direction -0.707107 -6.34906e-011 0.707107   
     length 0.950433   
     axis -90 -45 -2.85299e-015   XYZ
    dof rx rz
    limits (-45.0 45.0)
           (-45.0 45.0)
  end
:hierarchy
  begin
    root lhipjoint rhipjoint lowerback
    lhipjoint lfemur
    lfemur ltibia
    ltibia lfoot
    lfoot ltoes
    rhipjoint rfemur
    rfemur rtibia
    rtibia rfoot
    rfoot rtoes
    lowerback upperback
    upperback thorax
    thorax lowerneck lclavicle rclavicle
    lowerneck upperneck
    upperneck head
    lclavicle lhumerus
    lhumerus lradius
    lradius lwrist
    lwrist lhand lthumb
    lhand lfingers
    rclavicle rhumerus
    rhumerus rradius
    rradius rwrist
    rwrist rhand rthumb
    rhand rfingers
  end

#!OML:ASF F:\VICON\USERDATA\INSTALL\rory3\rory3.ASF
:FULLY-SPECIFIED
:DEGREES
1393
root 3.22595 18.0745 -0.165746 -11.4117 81.1012 -17.4426
lowerback 4.5068 -0.24596 3.24918
upperback -5.25201 0.0399433 0.496122
thorax -8.04941 -0.128496 -1.30792
lowerneck 6.62032 10.1134 -3.79762
upperneck -9.30978 13.7927 4.87671
head -4.47122 6.69687 1.22872
rclavicle -3.82039e-015 -2.83268e-015
rhumerus -14.6958 31.1981 -97.0292
rradius 126.933
rwrist 6.99446
rhand 30.9685 -1.22419
rfingers 7.12502
rthumb 54.5755 -19.6655
lclavicle -3.82039e-015 -2.83268e-015
lhumerus -25.885 -28.8354 101.405
lradius 130.543
lwrist 25.3237
lhand -18.2148 23.1812
lfingers 7.12502
lthumb 8.06307 53.0074
rfemur -8.49473 0.147119 20.471
rtibia 14.7583
rfoot -7.62418 3.60269
rtoes -11.1601
lfemur 0.958209 7.40163 -17.5171
ltibia 4.43864
lfoot -13.2802 5.51163
ltoes -13.2986
1394
root 3.2298 18.0762 -0.167351 -11.5927 81.2325 -17.6716
lowerback 4.55995 -0.130823 3.28364
upperback -5.26138 0.193607 0.412391
thorax -8.08328 -0.0587566 -1.43305
lowerneck 6.79529 10.4265 -4.17693
upperneck -10.3117 14.3192 5.42081
head -4.89982 6.92329 1.3614
rclavicle -5.66536e-015 1.2921e-015
rhumerus -15.1485 30.5594 -97.0647
rradius 127.273
rwrist 7.06636
rhand 31.0397 -1.14352
rfingers 7.12502
rthumb 54.6392 -19.54
lclavicle -5.66536e-015 1.2921e-015
lhumerus -25.6826 -29.3966 101.587
lradius 130.397
lwrist 25.3387
lhand -18.3039 23.3575
lfingers 7.12502
lthumb 7.97704 53.187
rfemur -8.43675 0.0226224 20.4885
rtibia 14.621
rfoot -7.66415 3.42942
rtoes -11.6745
lfemur 0.630787 7.26233 -17.5366
ltibia 4.91573
lfoot -13.4602 5.42721
ltoes -13.1676
1395
root 3.23125 18.0745 -0.166555 -12.1947 81.3747 -18.3292
lowerback 4.645 -0.0576496 3.35955
upperback -5.26454 0.29469 0.321313
thorax -8.13141 -0.0179131 -1.58348
lowerneck 6.9048 10.7588 -4.59733
upperneck -11.4865 14.9156 6.04253
head -5.39203 7.17732 1.51205
rclavicle -1.37286e-015 4.96962e-016
rhumerus -15.9078 29.967 -97.3488
rradius 127.774
rwrist 7.31112
rhand 30.9838 -1.05689
rfingers 7.12502
rthumb 54.5892 -19.4886
lclavicle -1.37286e-015 4.96962e-016
lhumerus -25.4187 -29.8898 101.67
lradius 130.228
lwrist 25.4094
lhand -18.2418 23.4858
lfingers 7.12502
lthumb 8.03699 53.3129
rfemur -8.36292 -0.0397679 20.5956
rtibia 14.4458
rfoot -7.75912 3.12721
rtoes -12.8602
lfemur 0.234374 7.09993 -17.4844
ltibia 5.4874
lfoot -13.6713 5.28218
ltoes -12.7374
1396
root 3.23278 18.0702 -0.165223 -12.8024 81.5067 -18.999
lowerback 4.67004 0.0332253 3.44304
upperback -5.20846 0.412579 0.198028
thorax -8.07837 0.0313661 -1.77383
lowerneck 7.04558 11.0551 -5.08419
upperneck -13.0728 15.5278 6.68861
head -6.0378 7.42957 1.66094
rclavicle 5.41067e-015 -1.39149e-015
rhumerus -16.5798 29.3342 -97.5447
rradius 128.302
rwrist 7.39647
rhand 30.8727 -1.17124
rfingers 7.12502
rthumb 54.4898 -19.6726
lclavicle 5.41067e-015 -1.39149e-015
lhumerus -25.0845 -30.4744 101.748
lradius 130.081
lwrist 25.5058
lhand -18.1589 23.5048
lfingers 7.12502
lthumb 8.11696 53.3289
rfemur -8.2839 -0.153987 20.7177
rtibia 14.2691
rfoot -7.81506 2.93158
rtoes -13.9071
lfemur -0.141322 6.94662 -17.4345
ltibia 6.01176
lfoot -13.8743 5.24154
ltoes -13.0204
1397
root 3.23373 18.0689 -0.164637 -13.671 81.6175 -19.9777
lowerback 4.89939 0.15957 3.56658
upperback -5.30257 0.596119 0.0636867
thorax -8.30336 0.104398 -2.00873
lowerneck 7.48712 11.236 -5.43844
upperneck -14.9799 16.0376 7.22087
head -6.82644 7.61306 1.73857
rclavicle -3.08303e-014 -1.11319e-014
rhumerus -17.4806 28.5545 -97.7718
rradius 128.861
rwrist 7.3335
rhand 30.817 -1.38278
rfingers 7.12502
rthumb 54.4399 -19.9189
lclavicle -3.08303e-014 -1.11319e-014
lhumerus -25.0262 -31.1471 102.067
lradius 129.948
lwrist 25.5756
lhand -18.1828 23.5623
lfingers 7.12502
lthumb 8.09391 53.3873
rfemur -8.25733 -0.332917 20.8808
rtibia 14.0687
rfoot -7.8369 2.81294
rtoes -14.6101
lfemur -0.564218 6.80528 -17.3407
ltibia 6.54962
lfoot -14.0824 5.12843
ltoes -12.8923
1398
root 3.23365 18.0702 -0.163822 -14.3303 81.7428 -20.7352
lowerback 5.04555 0.278413 3.69367
upperback -5.34932 0.760667 -0.121523
thorax -8.42739 0.167531 -2.29765
lowerneck 7.93215 11.3152 -5.63289
upperneck -16.9441 16.4492 7.61036
head -7.62134 7.74429 1.75944
rclavicle 2.35684e-014 7.15625e-015
rhumerus -18.3787 27.8171 -97.9524
rradius 129.334
rwrist 7.36196
rhand 30.7336 -1.29581
rfingers 7.12502
rthumb 54.3653 -19.8838
lclavicle 2.35684e-014 7.15625e-015
lhumerus -24.8244 -31.8168 102.298
lradius 129.804
lwrist 25.6239
lhand -18.0822 23.719
lfingers 7.12502
lthumb 8.19097 53.5402
rfemur -8.24122 -0.433225 20.9829
rtibia 13.8724
rfoot -7.83429 2.63895
rtoes -14.3162
lfemur -0.95072 6.65577 -17.2905
ltibia 7.02822
lfoot -14.2643 5.07631
ltoes -13.0535
1399
root 3.234 18.0709 -0.162692 -15.2314 81.8294 -21.6927
lowerback 5.14998 0.377758 3.79803
upperback -5.32174 0.893122 -0.28987
thorax -8.44695 0.219122 -2.55174
lowerneck 8.18449 11.3176 -5.67838
upperneck -18.8031 16.7723 7.82968
head -8.33206 7.84331 1.73275
rclavicle -1.3828e-014 -7.95139e-016
rhumerus -19.2305 27.2675 -98.1943
rradius 129.619
rwrist 7.7705
rhand 30.3757 -0.905952
rfingers 7.12502
rthumb 54.0444 -19.7139
lclavicle -1.3828e-014 -7.95139e-016
lhumerus -24.4571 -32.4714 102.363
lradius 129.652
lwrist 25.6466
lhand -17.976 23.863
lfingers 7.12502
lthumb 8.29353 53.6802
rfemur -8.19123 -0.471739 21.1105
rtibia 13.7103
rfoot -7.80853 2.49017
rtoes -13.7314
lfemur -1.20027 6.53395 -17.1779
ltibia 7.33249
lfoot -14.3654 5.04802
ltoes -13.0246
